<?xml version="1.0" encoding="UTF-8"?>
<svg width="20px" height="20px" viewBox="0 0 20 20" version="1.1" xmlns="http://www.w3.org/2000/svg" xmlns:xlink="http://www.w3.org/1999/xlink">
    <title>icon / instagram</title>
    <g id="5.-Pages" stroke="none" stroke-width="1" fill="none" fill-rule="evenodd">
        <g id="/---on-construction" transform="translate(-1097.000000, -911.000000)" fill="#4E4D52" fill-rule="nonzero">
            <g id="Group-4" transform="translate(128.000000, 903.000000)">
                <g id="icon-/-instagram" transform="translate(969.000000, 8.000000)">
                    <path d="M17,2.95 C16.9724336,2.95 16.95,2.97243363 16.95,3 C16.95,3.02756637 16.9724336,3.05 17,3.05 C17.0275704,3.05 17.05,3.02757039 17.05,3 C17.05,2.97242961 17.0275704,2.95 17,2.95 Z" id="Path"></path>
                    <path d="M9.99997731,5 C7.2429932,5 5,7.2429932 5,9.99997731 C5,12.7569614 7.2429932,15 9.99997731,15 C12.7570068,15 15,12.7570068 15,10.0000227 C15,7.24303857 12.7570068,5 9.99997731,5 Z" id="Path"></path>
                    <path d="M14.5173047,0 L5.48269531,0 C2.45953125,0 0,2.45953125 0,5.48273437 L0,14.5173047 C0,17.5405078 2.45953125,20 5.48269531,20 L14.5173047,20 C17.5405078,20 20,17.5404687 20,14.5173047 L20,5.48273437 C20,2.45953125 17.5405078,0 14.5173047,0 Z M10,15.485625 C6.97519531,15.485625 4.51441406,13.0248047 4.51441406,10 C4.51441406,6.97519531 6.97523438,4.51445312 10,4.51445312 C13.0247656,4.51445312 15.485625,6.97523437 15.485625,10 C15.485625,13.0247656 13.0247656,15.485625 10,15.485625 Z M15.8137109,5.85296875 C14.8947266,5.85296875 14.1470703,5.1053125 14.1470703,4.18632813 C14.1470703,3.26734375 14.8947266,2.51964844 15.8137109,2.51964844 C16.7326953,2.51964844 17.4803516,3.26730469 17.4803516,4.18628906 C17.4803516,5.10527344 16.7326953,5.85296875 15.8137109,5.85296875 Z" id="Shape"></path>
                </g>
            </g>
        </g>
    </g>
</svg>