<?xml version="1.0" encoding="UTF-8"?>
<svg width="20px" height="17px" viewBox="0 0 20 17" version="1.1" xmlns="http://www.w3.org/2000/svg" xmlns:xlink="http://www.w3.org/1999/xlink">
    <title>icon / twitter</title>
    <g id="5.-Pages" stroke="none" stroke-width="1" fill="none" fill-rule="evenodd">
        <g id="/---on-construction" transform="translate(-1064.000000, -913.000000)" fill="#4E4D52" fill-rule="nonzero">
            <g id="Group-4" transform="translate(128.000000, 903.000000)">
                <g id="Path" transform="translate(936.000000, 10.000000)">
                    <path d="M19.9116635,2.90989459 C19.7934209,2.72195426 19.577053,2.61542674 19.3518178,2.63451086 L18.3545487,2.71939699 L19.3077942,0.841787521 C19.4213102,0.618159894 19.3764663,0.348730397 19.1963095,0.17174434 C19.0160744,-0.00524171655 18.7406047,-0.0503565579 18.5111899,0.0594152557 L15.9882514,1.26671436 C14.429535,0.462662547 12.4821454,0.701328455 11.1421407,1.8940473 C10.0237775,2.88947459 9.43592385,4.42028757 9.54553361,5.94686388 C6.6225156,5.6606022 4.14828822,4.02581897 2.68523624,1.38434883 C2.58816559,1.20911851 2.40617277,1.09449933 2.20277362,1.08041526 C1.99898385,1.06656019 1.80265504,1.15480513 1.68132649,1.31499717 C0.773901452,2.51279239 0.710229355,4.15509475 1.42159902,5.50621173 C1.22550459,5.45781442 1.01683199,5.39231775 0.785424929,5.31678283 C0.58718205,5.25201135 0.368626601,5.29350021 0.209524483,5.42602029 C0.0504223659,5.55854036 -0.0260622759,5.76277853 0.00796128028,5.96434493 C0.289446637,7.63183832 1.28460636,8.91337462 2.85664309,9.67192991 C2.65195488,9.74158692 2.44308696,9.79815223 2.23070341,9.84139683 C2.01968705,9.88437425 1.84882708,10.0352151 1.78378779,10.2360181 C1.7187485,10.436783 1.76960805,10.6562503 1.91687419,10.81003 C3.04894845,11.9924053 4.68426665,12.5743562 5.8458332,12.8535186 C4.52512547,13.8640987 3.09945644,14.0332221 1.02780859,13.9637177 C0.788003063,13.9566185 0.567064793,14.0886042 0.466244129,14.3010103 C0.365462527,14.5134547 0.404564226,14.7642199 0.565619475,14.9376945 C1.42921624,15.867816 4.57555534,16.9166024 7.88306687,16.995229 C8.01388764,16.9983206 8.14732561,17 8.28357608,17 C10.6058889,17 13.6750793,16.513546 15.8780948,14.3609726 C17.5455615,12.7317238 18.5885339,10.8560991 18.9779493,8.78638894 C19.2924817,7.11473521 19.0936919,5.77609924 18.9981838,5.13273565 C18.9911525,5.08544522 18.9836525,5.03525401 18.9775587,4.99136055 L19.9104135,3.52226559 C20.0293983,3.33485961 20.0299061,3.09783493 19.9116635,2.90989459 Z"></path>
                </g>
            </g>
        </g>
    </g>
</svg>