<?xml version="1.0" encoding="UTF-8"?>
<svg width="22px" height="14px" viewBox="0 0 22 14" version="1.1" xmlns="http://www.w3.org/2000/svg" xmlns:xlink="http://www.w3.org/1999/xlink">
    <title>icon / youtube</title>
    <g id="5.-Pages" stroke="none" stroke-width="1" fill="none" fill-rule="evenodd">
        <g id="/---on-construction" transform="translate(-1129.000000, -914.000000)" fill="#4E4D52" fill-rule="nonzero">
            <g id="Group-4" transform="translate(128.000000, 903.000000)">
                <g id="icon-/-youtube" transform="translate(1001.000000, 11.000000)">
                    <polygon id="Path" points="9 4 9 10 14 6.99997381"></polygon>
                    <path d="M19.1417617,0 L2.85823828,0 C1.2821875,0 0,1.23356996 0,2.74991141 L0,11.2500472 C0,12.7663887 1.2821875,14 2.85823828,14 L19.1417617,14 C20.7178125,14 22,12.7663887 22,11.2500472 L22,2.74991141 C22,1.23356996 20.7177695,0 19.1417617,0 Z M15.1790977,7.54123456 L8.96822266,10.9912121 C8.86776172,11.0470636 8.75557031,11.0749687 8.64342187,11.0749687 C8.53127344,11.0749687 8.41908203,11.0470636 8.31862109,10.9912121 C8.11765625,10.8795918 7.99382031,10.6732595 7.99382031,10.4499776 L7.99382031,3.5499811 C7.99382031,3.32669911 8.11761328,3.12036687 8.31862109,3.00874655 C8.51962891,2.89708488 8.76721484,2.89708488 8.96822266,3.00874655 L15.1790977,6.4587241 C15.3800625,6.57034443 15.5038984,6.77667667 15.5038984,6.99995866 C15.5038984,7.22324065 15.3800625,7.42961423 15.1790977,7.54123456 Z" id="Shape"></path>
                </g>
            </g>
        </g>
    </g>
</svg>